<svg width="32" height="32" viewBox="0 0 32 32" fill="none" xmlns="http://www.w3.org/2000/svg">
<path fill-rule="evenodd" clip-rule="evenodd" d="M5.54294 4.8754C4.67876 5.85109 4.2381 7.29156 4.2381 9.13909V20.1722C4.2381 22.0198 4.67876 23.4602 5.54294 24.4359C6.39941 25.4029 7.76088 26.0133 9.80957 26.0133H16.5008C16.2396 25.6938 16.0033 25.3508 15.7938 24.9888C15.1412 23.8763 14.762 22.5394 14.762 21.1457C14.762 18.8043 15.7904 16.6844 17.434 15.3295C18.6554 14.2924 20.2146 13.6822 21.8811 13.6822C23.1143 13.6822 24.2754 14.0093 25.2859 14.5893V9.13909C25.2859 7.29156 24.8452 5.85109 23.981 4.8754C23.1246 3.90842 21.7631 3.29802 19.7144 3.29802H9.80957C7.76088 3.29802 6.39941 3.90842 5.54294 4.8754ZM4.63566 3.99216C5.79112 2.68762 7.5249 2 9.80957 2H19.7144C21.9991 2 23.7329 2.68762 24.8883 3.99216C26.0361 5.288 26.524 7.09258 26.524 9.13909V15.7979C26.524 16.0472 26.3878 16.2745 26.1735 16.3827C25.9592 16.4908 25.7048 16.4608 25.5189 16.3053C24.5243 15.4734 23.2607 14.9802 21.8811 14.9802C20.5036 14.9802 19.2167 15.4849 18.2101 16.3409L18.2024 16.3474L18.2024 16.3473C16.852 17.4588 16.0001 19.2056 16.0001 21.1457C16.0001 22.2955 16.3139 23.3982 16.8492 24.3103L16.8513 24.3138C17.2689 25.0356 17.8075 25.6573 18.4416 26.1355C18.6597 26.3 18.7517 26.5933 18.6693 26.8614C18.5869 27.1296 18.3488 27.3113 18.0801 27.3113H9.80957C7.5249 27.3113 5.79112 26.6237 4.63566 25.3192C3.48792 24.0233 3 22.2188 3 20.1722V9.13909C3 7.09258 3.48792 5.288 4.63566 3.99216Z" fill="black"/>
<path fill-rule="evenodd" clip-rule="evenodd" d="M8 12.65C8 12.291 8.25584 12 8.57143 12H15.4286C15.7442 12 16 12.291 16 12.65C16 13.009 15.7442 13.3 15.4286 13.3H8.57143C8.25584 13.3 8 13.009 8 12.65Z" fill="black"/>
<path fill-rule="evenodd" clip-rule="evenodd" d="M8 15.9469C8 15.5879 8.29848 15.2969 8.66667 15.2969H15.3333C15.7015 15.2969 16 15.5879 16 15.9469C16 16.3059 15.7015 16.5969 15.3333 16.5969H8.66667C8.29848 16.5969 8 16.3059 8 15.9469Z" fill="black"/>
<path fill-rule="evenodd" clip-rule="evenodd" d="M8 19.2428C8 18.8843 8.3092 18.5938 8.69061 18.5938H12.3094C12.6908 18.5938 13 18.8843 13 19.2428C13 19.6012 12.6908 19.8918 12.3094 19.8918H8.69061C8.3092 19.8918 8 19.6012 8 19.2428Z" fill="black"/>
<path fill-rule="evenodd" clip-rule="evenodd" d="M21.8808 14.9777C20.5033 14.9777 19.2164 15.4824 18.2098 16.3384L18.2022 16.3449L18.2021 16.3448C16.8518 17.4563 15.9998 19.2031 15.9998 21.1433C15.9998 22.293 16.3136 23.3957 16.849 24.3078L16.851 24.3114L16.851 24.3114C17.2686 25.0332 17.8072 25.6548 18.4413 26.133L18.4457 26.1363L18.4457 26.1363C19.4072 26.8748 20.5922 27.3089 21.8808 27.3089C23.3709 27.3089 24.7112 26.7347 25.7404 25.773C25.7459 25.7679 25.7515 25.7628 25.7571 25.7579C26.205 25.3685 26.5924 24.8831 26.9052 24.3209L26.9125 24.3077L26.9127 24.3078C27.448 23.3957 27.7618 22.293 27.7618 21.1433C27.7618 19.1822 26.889 17.4334 25.5218 16.3055L25.5186 16.3028L25.5186 16.3028C24.524 15.4709 23.2604 14.9777 21.8808 14.9777ZM17.4337 15.3271C18.6551 14.2899 20.2143 13.6797 21.8808 13.6797C23.5462 13.6797 25.0801 14.2762 26.289 15.2867C27.942 16.6511 28.9999 18.7697 28.9999 21.1433C28.9999 22.5349 28.6218 23.87 27.971 24.9815C27.5929 25.6593 27.1178 26.2593 26.556 26.7496C25.3081 27.912 23.6801 28.6069 21.8808 28.6069C20.3228 28.6069 18.8837 28.0811 17.7161 27.185C16.9403 26.5995 16.2915 25.8465 15.7935 24.9863C15.1409 23.8738 14.7617 22.5369 14.7617 21.1433C14.7617 18.8018 15.7901 16.6819 17.4337 15.3271Z" fill="black"/>
<path fill-rule="evenodd" clip-rule="evenodd" d="M25.6231 26.319C25.9618 26.0177 26.475 26.0544 26.7694 26.401L28.3685 28.2837C28.6629 28.6303 28.627 29.1555 28.2884 29.4568C27.9497 29.7581 27.4365 29.7214 27.1421 29.3748L25.543 27.4921C25.2486 27.1455 25.2845 26.6203 25.6231 26.319Z" fill="black"/>
</svg>
